<?xml version="1.0" encoding="UTF-8" standalone="no"?>
<!-- Created with Inkscape (http://www.inkscape.org/) -->

<svg
   xmlns:dc="http://purl.org/dc/elements/1.1/"
   xmlns:cc="http://creativecommons.org/ns#"
   xmlns:rdf="http://www.w3.org/1999/02/22-rdf-syntax-ns#"
   xmlns:svg="http://www.w3.org/2000/svg"
   xmlns="http://www.w3.org/2000/svg"
   xmlns:sodipodi="http://sodipodi.sourceforge.net/DTD/sodipodi-0.dtd"
   xmlns:inkscape="http://www.inkscape.org/namespaces/inkscape"
   width="34.292778mm"
   height="16.007292mm"
   viewBox="0 0 34.292778 16.007292"
   version="1.1"
   id="svg8"
   inkscape:version="0.92.3 (2405546, 2018-03-11)"
   sodipodi:docname="bluezjs-logo.svg">
  <defs
     id="defs2" />
  <sodipodi:namedview
     id="base"
     pagecolor="#ffffff"
     bordercolor="#666666"
     borderopacity="1.0"
     inkscape:pageopacity="0.0"
     inkscape:pageshadow="2"
     inkscape:zoom="2.8284271"
     inkscape:cx="147.99499"
     inkscape:cy="56.898311"
     inkscape:document-units="mm"
     inkscape:current-layer="layer1"
     showgrid="false"
     inkscape:window-width="1920"
     inkscape:window-height="1020"
     inkscape:window-x="0"
     inkscape:window-y="0"
     inkscape:window-maximized="1"
     fit-margin-top="0"
     fit-margin-left="0"
     fit-margin-right="0"
     fit-margin-bottom="0" />
  <metadata
     id="metadata5">
    <rdf:RDF>
      <cc:Work
         rdf:about="">
        <dc:format>image/svg+xml</dc:format>
        <dc:type
           rdf:resource="http://purl.org/dc/dcmitype/StillImage" />
        <dc:title></dc:title>
      </cc:Work>
    </rdf:RDF>
  </metadata>
  <g
     inkscape:label="Layer 1"
     inkscape:groupmode="layer"
     id="layer1"
     transform="translate(-30.663761,-32.274848)">
    <g
       id="g135"
       transform="matrix(0.63020832,0,0,0.63020832,10.535079,-23.998064)"
       style="stroke-width:1.58677673">
      <rect
         id="rect103"
         height="25.4"
         width="25.4"
         style="fill:#f7df1e;stroke-width:0.41983467"
         x="60.954716"
         y="89.292557" />
      <path
         style="stroke-width:0.41983467"
         id="path105"
         d="m 78.017067,109.1364 c 0.511628,0.83538 1.177269,1.44942 2.354538,1.44942 0.988988,0 1.620762,-0.4943 1.620762,-1.17727 0,-0.81845 -0.649111,-1.10833 -1.737682,-1.58448 l -0.596698,-0.25602 c -1.722362,-0.73377 -2.866572,-1.65301 -2.866572,-3.59631 0,-1.7901 1.36394,-3.15283 3.495524,-3.15283 1.517549,0 2.60854,0.52816 3.39473,1.91105 l -1.858635,1.1934 c -0.409222,-0.73378 -0.850699,-1.02286 -1.536095,-1.02286 -0.699105,0 -1.142194,0.44349 -1.142194,1.02286 0,0.71603 0.443493,1.00592 1.467557,1.44941 l 0.596698,0.25561 c 2.027968,0.86965 3.172984,1.75623 3.172984,3.74953 0,2.14892 -1.688093,3.32619 -3.955144,3.32619 -2.216653,0 -3.648729,-1.05632 -4.349447,-2.44082 z m -8.431591,0.20683 c 0.374952,0.66524 0.716038,1.22767 1.536095,1.22767 0.784175,0 1.27887,-0.30682 1.27887,-1.49981 v -8.11591 h 2.386794 v 8.14816 c 0,2.47146 -1.44901,3.59632 -3.564064,3.59632 -1.911048,0 -3.017762,-0.98899 -3.580594,-2.18017 z"
         inkscape:connector-curvature="0" />
    </g>
    <flowRoot
       xml:space="preserve"
       id="flowRoot10"
       style="font-style:normal;font-weight:normal;font-size:40px;line-height:1.25;font-family:sans-serif;letter-spacing:0px;word-spacing:0px;fill:#0a3d91;fill-opacity:1;stroke:none;stroke-width:0.75928539"
       transform="matrix(0.34846362,0,0,0.34846362,-13.205903,-28.058775)"><flowRegion
         id="flowRegion12"
         style="fill:#0a3d91;fill-opacity:1;stroke-width:0.75928539"><rect
           id="rect14"
           width="540"
           height="297"
           x="124"
           y="169.51968"
           style="fill:#0a3d91;fill-opacity:1;stroke-width:0.75928539" /></flowRegion><flowPara
         id="flowPara16"
         style="font-style:normal;font-variant:normal;font-weight:bold;font-stretch:normal;font-size:40px;font-family:Uroob;-inkscape-font-specification:'Uroob, Bold';font-variant-ligatures:normal;font-variant-caps:normal;font-variant-numeric:normal;font-feature-settings:normal;text-align:start;writing-mode:lr-tb;text-anchor:start;fill:#0a3d91;fill-opacity:1;stroke-width:0.75928539">BlueZ</flowPara></flowRoot>  </g>
</svg>
